REM GoldWave
FILE "Зазнобин В.М. Беседа о музыке (31 мая 2014 г.).m4a" BINARY
  TRACK 01 AUDIO
    TITLE "00:00:00.00000"
    PERFORMER "Владимир Михайлович Зазнобин. Видеоархив"
    INDEX 01 00:00:00
  TRACK 02 AUDIO
    TITLE "00:00:21.82900"
    PERFORMER "Владимир Михайлович Зазнобин. Видеоархив"
    INDEX 01 00:21:62
  TRACK 03 AUDIO
    TITLE "00:00:37.79079"
    PERFORMER "Владимир Михайлович Зазнобин. Видеоархив"
    INDEX 01 00:37:59
  TRACK 04 AUDIO
    TITLE "00:00:50.90535"
    PERFORMER "Владимир Михайлович Зазнобин. Видеоархив"
    INDEX 01 00:50:68
  TRACK 05 AUDIO
    TITLE "00:01:03.65721"
    PERFORMER "Владимир Михайлович Зазнобин. Видеоархив"
    INDEX 01 01:03:49
  TRACK 06 AUDIO
    TITLE "00:01:20.90723"
    PERFORMER "Владимир Михайлович Зазнобин. Видеоархив"
    INDEX 01 01:20:68
  TRACK 07 AUDIO
    TITLE "00:01:34.48433"
    PERFORMER "Владимир Михайлович Зазнобин. Видеоархив"
    INDEX 01 01:34:36
  TRACK 08 AUDIO
    TITLE "00:01:49.70819"
    PERFORMER "Владимир Михайлович Зазнобин. Видеоархив"
    INDEX 01 01:49:53
  TRACK 09 AUDIO
    TITLE "00:02:04.16950"
    PERFORMER "Владимир Михайлович Зазнобин. Видеоархив"
    INDEX 01 02:04:13
  TRACK 10 AUDIO
    TITLE "00:02:17.21766"
    PERFORMER "Владимир Михайлович Зазнобин. Видеоархив"
    INDEX 01 02:17:16
  TRACK 11 AUDIO
    TITLE "00:02:47.51499"
    PERFORMER "Владимир Михайлович Зазнобин. Видеоархив"
    INDEX 01 02:47:39
  TRACK 12 AUDIO
    TITLE "00:03:10.78222"
    PERFORMER "Владимир Михайлович Зазнобин. Видеоархив"
    INDEX 01 03:10:59
  TRACK 13 AUDIO
    TITLE "00:03:26.74542"
    PERFORMER "Владимир Михайлович Зазнобин. Видеоархив"
    INDEX 01 03:26:56
  TRACK 14 AUDIO
    TITLE "00:03:50.11624"
    PERFORMER "Владимир Михайлович Зазнобин. Видеоархив"
    INDEX 01 03:50:09
  TRACK 15 AUDIO
    TITLE "00:04:03.93853"
    PERFORMER "Владимир Михайлович Зазнобин. Видеоархив"
    INDEX 01 04:03:70
  TRACK 16 AUDIO
    TITLE "00:04:18.28515"
    PERFORMER "Владимир Михайлович Зазнобин. Видеоархив"
    INDEX 01 04:18:21
  TRACK 17 AUDIO
    TITLE "00:04:33.02045"
    PERFORMER "Владимир Михайлович Зазнобин. Видеоархив"
    INDEX 01 04:33:02
  TRACK 18 AUDIO
    TITLE "00:04:50.97590"
    PERFORMER "Владимир Михайлович Зазнобин. Видеоархив"
    INDEX 01 04:50:73
  TRACK 19 AUDIO
    TITLE "00:05:03.93766"
    PERFORMER "Владимир Михайлович Зазнобин. Видеоархив"
    INDEX 01 05:03:70
  TRACK 20 AUDIO
    TITLE "00:05:21.79701"
    PERFORMER "Владимир Михайлович Зазнобин. Видеоархив"
    INDEX 01 05:21:60
  TRACK 21 AUDIO
    TITLE "00:05:55.77746"
    PERFORMER "Владимир Михайлович Зазнобин. Видеоархив"
    INDEX 01 05:55:58
  TRACK 22 AUDIO
    TITLE "00:06:12.27751"
    PERFORMER "Владимир Михайлович Зазнобин. Видеоархив"
    INDEX 01 06:12:21
  TRACK 23 AUDIO
    TITLE "00:06:29.61810"
    PERFORMER "Владимир Михайлович Зазнобин. Видеоархив"
    INDEX 01 06:29:46
  TRACK 24 AUDIO
    TITLE "00:06:42.83016"
    PERFORMER "Владимир Михайлович Зазнобин. Видеоархив"
    INDEX 01 06:42:62
  TRACK 25 AUDIO
    TITLE "00:06:55.93125"
    PERFORMER "Владимир Михайлович Зазнобин. Видеоархив"
    INDEX 01 06:55:70
  TRACK 26 AUDIO
    TITLE "00:07:09.86408"
    PERFORMER "Владимир Михайлович Зазнобин. Видеоархив"
    INDEX 01 07:09:65
  TRACK 27 AUDIO
    TITLE "00:07:24.84088"
    PERFORMER "Владимир Михайлович Зазнобин. Видеоархив"
    INDEX 01 07:24:63
  TRACK 28 AUDIO
    TITLE "00:07:41.16862"
    PERFORMER "Владимир Михайлович Зазнобин. Видеоархив"
    INDEX 01 07:41:13
  TRACK 29 AUDIO
    TITLE "00:07:54.40254"
    PERFORMER "Владимир Михайлович Зазнобин. Видеоархив"
    INDEX 01 07:54:30
  TRACK 30 AUDIO
    TITLE "00:08:09.69977"
    PERFORMER "Владимир Михайлович Зазнобин. Видеоархив"
    INDEX 01 08:09:52
  TRACK 31 AUDIO
    TITLE "00:08:24.36029"
    PERFORMER "Владимир Михайлович Зазнобин. Видеоархив"
    INDEX 01 08:24:27
  TRACK 32 AUDIO
    TITLE "00:08:47.34891"
    PERFORMER "Владимир Михайлович Зазнобин. Видеоархив"
    INDEX 01 08:47:26
  TRACK 33 AUDIO
    TITLE "00:09:01.77447"
    PERFORMER "Владимир Михайлович Зазнобин. Видеоархив"
    INDEX 01 09:01:58
  TRACK 34 AUDIO
    TITLE "00:09:15.60605"
    PERFORMER "Владимир Михайлович Зазнобин. Видеоархив"
    INDEX 01 09:15:45
  TRACK 35 AUDIO
    TITLE "00:09:31.34959"
    PERFORMER "Владимир Михайлович Зазнобин. Видеоархив"
    INDEX 01 09:31:26
  TRACK 36 AUDIO
    TITLE "00:09:46.02313"
    PERFORMER "Владимир Михайлович Зазнобин. Видеоархив"
    INDEX 01 09:46:02
  TRACK 37 AUDIO
    TITLE "00:09:59.00719"
    PERFORMER "Владимир Михайлович Зазнобин. Видеоархив"
    INDEX 01 09:59:01
  TRACK 38 AUDIO
    TITLE "00:10:14.29329"
    PERFORMER "Владимир Михайлович Зазнобин. Видеоархив"
    INDEX 01 10:14:22
  TRACK 39 AUDIO
    TITLE "00:10:42.90111"
    PERFORMER "Владимир Михайлович Зазнобин. Видеоархив"
    INDEX 01 10:42:68
  TRACK 40 AUDIO
    TITLE "00:10:57.37125"
    PERFORMER "Владимир Михайлович Зазнобин. Видеоархив"
    INDEX 01 10:57:28
  TRACK 41 AUDIO
    TITLE "00:11:12.56029"
    PERFORMER "Владимир Михайлович Зазнобин. Видеоархив"
    INDEX 01 11:12:42
  TRACK 42 AUDIO
    TITLE "00:11:26.00875"
    PERFORMER "Владимир Михайлович Зазнобин. Видеоархив"
    INDEX 01 11:26:01
  TRACK 43 AUDIO
    TITLE "00:11:39.61882"
    PERFORMER "Владимир Михайлович Зазнобин. Видеоархив"
    INDEX 01 11:39:46
  TRACK 44 AUDIO
    TITLE "00:11:53.15785"
    PERFORMER "Владимир Михайлович Зазнобин. Видеоархив"
    INDEX 01 11:53:12
  TRACK 45 AUDIO
    TITLE "00:12:06.92905"
    PERFORMER "Владимир Михайлович Зазнобин. Видеоархив"
    INDEX 01 12:06:70
  TRACK 46 AUDIO
    TITLE "00:12:19.78263"
    PERFORMER "Владимир Михайлович Зазнобин. Видеоархив"
    INDEX 01 12:19:59
  TRACK 47 AUDIO
    TITLE "00:12:35.35200"
    PERFORMER "Владимир Михайлович Зазнобин. Видеоархив"
    INDEX 01 12:35:26
  TRACK 48 AUDIO
    TITLE "00:12:51.74429"
    PERFORMER "Владимир Михайлович Зазнобин. Видеоархив"
    INDEX 01 12:51:56
  TRACK 49 AUDIO
    TITLE "00:13:10.51755"
    PERFORMER "Владимир Михайлович Зазнобин. Видеоархив"
    INDEX 01 13:10:39
  TRACK 50 AUDIO
    TITLE "00:13:25.60488"
    PERFORMER "Владимир Михайлович Зазнобин. Видеоархив"
    INDEX 01 13:25:45
  TRACK 51 AUDIO
    TITLE "00:13:41.14499"
    PERFORMER "Владимир Михайлович Зазнобин. Видеоархив"
    INDEX 01 13:41:11
  TRACK 52 AUDIO
    TITLE "00:13:55.36109"
    PERFORMER "Владимир Михайлович Зазнобин. Видеоархив"
    INDEX 01 13:55:27
  TRACK 53 AUDIO
    TITLE "00:14:09.26930"
    PERFORMER "Владимир Михайлович Зазнобин. Видеоархив"
    INDEX 01 14:09:20
  TRACK 54 AUDIO
    TITLE "00:14:25.51531"
    PERFORMER "Владимир Михайлович Зазнобин. Видеоархив"
    INDEX 01 14:25:39
  TRACK 55 AUDIO
    TITLE "00:14:38.90433"
    PERFORMER "Владимир Михайлович Зазнобин. Видеоархив"
    INDEX 01 14:38:68
  TRACK 56 AUDIO
    TITLE "00:14:56.12556"
    PERFORMER "Владимир Михайлович Зазнобин. Видеоархив"
    INDEX 01 14:56:09
  TRACK 57 AUDIO
    TITLE "00:15:09.90329"
    PERFORMER "Владимир Михайлович Зазнобин. Видеоархив"
    INDEX 01 15:09:68
  TRACK 58 AUDIO
    TITLE "00:15:27.20626"
    PERFORMER "Владимир Михайлович Зазнобин. Видеоархив"
    INDEX 01 15:27:15
  TRACK 59 AUDIO
    TITLE "00:15:40.00224"
    PERFORMER "Владимир Михайлович Зазнобин. Видеоархив"
    INDEX 01 15:40:00
  TRACK 60 AUDIO
    TITLE "00:15:55.28181"
    PERFORMER "Владимир Михайлович Зазнобин. Видеоархив"
    INDEX 01 15:55:21
  TRACK 61 AUDIO
    TITLE "00:16:09.41805"
    PERFORMER "Владимир Михайлович Зазнобин. Видеоархив"
    INDEX 01 16:09:31
  TRACK 62 AUDIO
    TITLE "00:16:24.35723"
    PERFORMER "Владимир Михайлович Зазнобин. Видеоархив"
    INDEX 01 16:24:27
  TRACK 63 AUDIO
    TITLE "00:16:41.81719"
    PERFORMER "Владимир Михайлович Зазнобин. Видеоархив"
    INDEX 01 16:41:61
  TRACK 64 AUDIO
    TITLE "00:16:54.66844"
    PERFORMER "Владимир Михайлович Зазнобин. Видеоархив"
    INDEX 01 16:54:50
  TRACK 65 AUDIO
    TITLE "00:17:07.88050"
    PERFORMER "Владимир Михайлович Зазнобин. Видеоархив"
    INDEX 01 17:07:66
  TRACK 66 AUDIO
    TITLE "00:17:21.68703"
    PERFORMER "Владимир Михайлович Зазнобин. Видеоархив"
    INDEX 01 17:21:52
  TRACK 67 AUDIO
    TITLE "00:17:36.02249"
    PERFORMER "Владимир Михайлович Зазнобин. Видеоархив"
    INDEX 01 17:36:02
  TRACK 68 AUDIO
    TITLE "00:17:49.96181"
    PERFORMER "Владимир Михайлович Зазнобин. Видеоархив"
    INDEX 01 17:49:72
  TRACK 69 AUDIO
    TITLE "00:18:03.92390"
    PERFORMER "Владимир Михайлович Зазнобин. Видеоархив"
    INDEX 01 18:03:69
